<?xml version="1.0" encoding="iso-8859-1"?>
<!-- Generator: Adobe Illustrator 19.0.0, SVG Export Plug-In . SVG Version: 6.00 Build 0)  -->
<svg version="1.1" id="Layer_1" xmlns="http://www.w3.org/2000/svg" xmlns:xlink="http://www.w3.org/1999/xlink" x="0px" y="0px"
	 viewBox="0 0 512 512" style="enable-background:new 0 0 512 512;" xml:space="preserve">
<g>
	<path style="fill:#72C6EF;" d="M313.571,186.927c-3.596-5.935-7.203-14.301-10.484-24.017h-94.161
		c-3.468,10.275-7.308,19.153-11.101,25.111c-19.433,30.511-23.273,46.068-23.273,102.889v62.836L313.571,186.927z"/>
	<path style="fill:#72C6EF;" d="M174.551,408.273v92.09H337.46V290.909c0-34.211-1.42-53.446-6.772-70.004L174.551,408.273z"/>
</g>
<polygon style="fill:#FFFFFF;" points="175.389,407.273 337.46,407.273 337.46,314.182 252.969,314.182 "/>
<rect x="221.097" y="11.636" style="fill:#FAA85F;" width="69.818" height="34.909"/>
<path style="fill:#FFFFFF;" d="M290.915,162.909h-69.585c6.633-20.713,11.52-46.429,11.52-69.818V58.182h46.545v34.909
	C279.395,116.48,284.282,142.196,290.915,162.909z"/>
<g>
	<path style="fill:#00384E;" d="M321.693,231.715c3.13,13.556,4.131,30.836,4.131,59.194v11.636h-63.162l-19.398,23.273h82.56
		v69.818H186.188v-1.327l-23.273,27.927v78.126c0,6.435,5.201,11.636,11.636,11.636H337.46c6.435,0,11.636-5.201,11.636-11.636
		V290.909c0-39.459-1.967-60.567-9.786-80.349L321.693,231.715z M325.824,488.727H186.188v-69.818h139.636V488.727z"/>
	<path style="fill:#00384E;" d="M186.188,339.782v-13.964h11.636l19.398-23.273h-31.034v-11.636c0-57.169,4.073-69.353,21.446-96.64
		c12.079-18.932,25.1-62.999,25.1-101.178V58.182h46.545v34.909c0,38.179,13.021,82.246,25.088,101.178
		c0.465,0.721,0.884,1.408,1.327,2.106l15.884-19.06c-9.437-18.025-19.025-54.353-19.025-84.224V11.636
		C302.551,5.213,297.35,0,290.915,0h-69.818c-6.435,0-11.636,5.213-11.636,11.636v81.455c0,32.431-11.311,72.751-21.457,88.681
		c-20.852,32.756-25.088,51.119-25.088,109.137v76.8L186.188,339.782z M232.733,23.273h46.545v11.636h-46.545V23.273z"/>
	<path style="fill:#00384E;" d="M81.449,477.091c-2.63,0-5.26-0.884-7.447-2.7c-4.934-4.119-5.597-11.45-1.489-16.384
		L421.603,39.098c4.119-4.934,11.439-5.609,16.396-1.489c4.934,4.119,5.597,11.45,1.489,16.384L90.397,472.902
		C88.105,475.66,84.788,477.091,81.449,477.091z"/>
</g>
<g>
</g>
<g>
</g>
<g>
</g>
<g>
</g>
<g>
</g>
<g>
</g>
<g>
</g>
<g>
</g>
<g>
</g>
<g>
</g>
<g>
</g>
<g>
</g>
<g>
</g>
<g>
</g>
<g>
</g>
</svg>
